<?xml version="1.0" encoding="UTF-8" standalone="no"?>
<svg
   xmlns:dc="http://purl.org/dc/elements/1.1/"
   xmlns:cc="http://creativecommons.org/ns#"
   xmlns:rdf="http://www.w3.org/1999/02/22-rdf-syntax-ns#"
   xmlns:svg="http://www.w3.org/2000/svg"
   xmlns="http://www.w3.org/2000/svg"
   xmlns:sodipodi="http://sodipodi.sourceforge.net/DTD/sodipodi-0.dtd"
   xmlns:inkscape="http://www.inkscape.org/namespaces/inkscape"
   width="210mm"
   height="297mm"
   viewBox="0 0 210 297"
   version="1.1"
   id="svg8"
   inkscape:version="1.0beta2 (589b019, 2020-04-03)"
   sodipodi:docname="foot.svg">
  <defs
     id="defs2">
    <inkscape:perspective
       sodipodi:type="inkscape:persp3d"
       inkscape:vp_x="0 : 148.5 : 1"
       inkscape:vp_y="0 : 1000 : 0"
       inkscape:vp_z="210 : 148.5 : 1"
       inkscape:persp3d-origin="105 : 99 : 1"
       id="perspective856" />
  </defs>
  <sodipodi:namedview
     id="base"
     pagecolor="#ffffff"
     bordercolor="#666666"
     borderopacity="1.0"
     inkscape:pageopacity="0.0"
     inkscape:pageshadow="2"
     inkscape:zoom="2.8"
     inkscape:cx="69.075358"
     inkscape:cy="-127.27794"
     inkscape:document-units="mm"
     inkscape:current-layer="layer1"
     inkscape:document-rotation="0"
     showgrid="false"
     inkscape:window-width="2184"
     inkscape:window-height="1208"
     inkscape:window-x="631"
     inkscape:window-y="175"
     inkscape:window-maximized="0"
     inkscape:object-nodes="false" />
  <metadata
     id="metadata5">
    <rdf:RDF>
      <cc:Work
         rdf:about="">
        <dc:format>image/svg+xml</dc:format>
        <dc:type
           rdf:resource="http://purl.org/dc/dcmitype/StillImage" />
        <dc:title />
      </cc:Work>
    </rdf:RDF>
  </metadata>
  <g
     inkscape:label="Layer 1"
     inkscape:groupmode="layer"
     id="layer1">

    <path
       style="fill:none;stroke:#000000;stroke-width:0.26616px;stroke-linecap:butt;stroke-linejoin:miter;stroke-opacity:1"
       d="m 0.93946416,-46.504898 c -1.83179138,-0.06493 -1.87308742,6.949007 -6.03103356,10.156241 -4.1579462,3.207235 -3.6517439,15.768903 -0.49678,25.657877 C -4.9545774,1.0038603 -5.1634972,3.2723962 0.02648986,3.8216121 5.2164769,4.370828 5.6491285,0.79529817 6.4969655,-10.423513 10.089148,-20.579754 10.483741,-33.100383 6.420526,-36.585344 2.3607952,-40.067317 2.7712555,-46.439965 0.93946416,-46.504898 Z"
       id="body"
       inkscape:connector-curvature="0"
       sodipodi:nodetypes="czzc" />

           <path
       style="fill:none;stroke:#000000;stroke-width:0.26616px;stroke-linecap:butt;stroke-linejoin:miter;stroke-opacity:1"
       d="M 0,3.2072343 C 9.8746779,3.0102681 6.2394512,11.759319 5.0781208,21.381562 3.9167904,31.003805 3.0342861,36.73125 1.7624304e-8,36.615925 -3.0342861,36.5006 -3.7174281,27.594839 -5.3453906,20.847023 -6.9733531,14.099207 -9.8746779,3.4042006 0,3.2072343 Z"
       id="armtop"
       inkscape:connector-curvature="0"
       sodipodi:nodetypes="czzc" />

           <path
       style="fill:none;stroke:#000000;stroke-width:0.26616px;stroke-linecap:butt;stroke-linejoin:miter;stroke-opacity:1"
       d="M 0,-4.0090429 C 5.5983655,-4.4732787 4.8737942,2.6636492 4.4018407,10.221092 3.9298872,17.778536 2.3150787,10.964589 3.9893099,17.24414 5.1975079,19.569079 1.4677559,23.100399 1.7624304e-8,28.330569 -1.3066933,22.885435 -5.6985697,20.407226 -3.9753999,17.039832 -2.1577359,11.404582 -3.6647993,17.382376 -4.150784,10.851517 -4.6367687,4.3206571 -5.4046001,-3.5608748 0,-4.0090429 Z"
       id="armbottom"
       inkscape:connector-curvature="0"
       sodipodi:nodetypes="czzc" />

           <path
       style="fill:none;stroke:#000000;stroke-width:0.26616px;stroke-linecap:butt;stroke-linejoin:miter;stroke-opacity:1"
       d="M 0,-4.0090429 C 6.9347131,-4.2060092 7.0412598,13.630206 4.0090427,22.71791 0.97682559,31.805613 3.0342861,36.73125 1.7624304e-8,36.615925 -3.0342861,36.5006 -2.113811,30.267534 -4.2763125,22.985179 -6.4388141,15.702824 -6.9347131,-3.8120766 0,-4.0090429 Z"
       id="legtop"
       inkscape:connector-curvature="0"
       sodipodi:nodetypes="czzc" />

           <path
       style="fill:none;stroke:#000000;stroke-width:0.26616px;stroke-linecap:butt;stroke-linejoin:miter;stroke-opacity:1"
       d="M 0,-4.0090429 C 5.5983655,-4.4732787 6.2394512,2.1376163 4.5435818,9.3544331 0.70955604,20.847563 6.6032451,34.666351 1.7624304e-8,34.745038 -6.3659206,34.820898 -1.0447328,20.111293 -4.009043,9.0871641 -5.6370055,3.1411564 -5.4046001,-3.5608748 0,-4.0090429 Z"
       id="legbottom"
       inkscape:connector-curvature="0"
       sodipodi:nodetypes="czzc" />

           <path
       style="fill:none;stroke:#000000;stroke-width:0.26616px;stroke-linecap:butt;stroke-linejoin:miter;stroke-opacity:1"
       d="M 0.00451982,-3.4009915 C 4.1293205,1.5609604 11.996487,6.4256831 6.5394746,5.8315796 1.0824617,5.2374761 -0.70695022,5.431047 -5.6936743,5.9284784 -10.680398,6.4259098 -2.1359059,0.80297926 0.00451982,-3.4009915 Z"
       id="foot"
       inkscape:connector-curvature="0"
       sodipodi:nodetypes="czzc" />

           <path
       style="fill:none;stroke:#000000;stroke-width:0.26616px;stroke-linecap:butt;stroke-linejoin:miter;stroke-opacity:1"
       d="M 0.00489835,-10.221213 C 12.719377,2.7744471 17.201166,14.105679 10.082216,23.746103 c -6.5481233,9.39378 -17.3605819,6.541815 -21.530881,-1.45268 -4.1703,-7.994495 -2.868154,-19.0865175 11.45356335,-32.514636 z"
       id="foot"
       inkscape:connector-curvature="0"
       sodipodi:nodetypes="czzc" />
  </g>
</svg>
