<?xml version="1.0" encoding="UTF-8" standalone="no"?>
<svg
   xmlns:dc="http://purl.org/dc/elements/1.1/"
   xmlns:cc="http://creativecommons.org/ns#"
   xmlns:rdf="http://www.w3.org/1999/02/22-rdf-syntax-ns#"
   xmlns:svg="http://www.w3.org/2000/svg"
   xmlns="http://www.w3.org/2000/svg"
   xmlns:sodipodi="http://sodipodi.sourceforge.net/DTD/sodipodi-0.dtd"
   xmlns:inkscape="http://www.inkscape.org/namespaces/inkscape"
   sodipodi:docname="mage.svg"
   inkscape:version="1.0beta2 (589b019, 2020-04-03)"
   id="svg5243"
   version="1.1"
   viewBox="0 0 210 297"
   height="297mm"
   width="210mm">
  <defs
     id="defs5237" />
  <sodipodi:namedview
     inkscape:window-maximized="0"
     inkscape:window-y="185"
     inkscape:window-x="418"
     inkscape:window-height="1208"
     inkscape:window-width="1541"
     showgrid="false"
     inkscape:document-rotation="0"
     inkscape:current-layer="layer1"
     inkscape:document-units="mm"
     inkscape:cy="616.0775"
     inkscape:cx="-48.662488"
     inkscape:zoom="0.35"
     inkscape:pageshadow="2"
     inkscape:pageopacity="0.0"
     borderopacity="1.0"
     bordercolor="#666666"
     pagecolor="#ffffff"
     id="base" />
  <metadata
     id="metadata5240">
    <rdf:RDF>
      <cc:Work
         rdf:about="">
        <dc:format>image/svg+xml</dc:format>
        <dc:type
           rdf:resource="http://purl.org/dc/dcmitype/StillImage" />
        <dc:title></dc:title>
      </cc:Work>
    </rdf:RDF>
  </metadata>
  <g
     id="layer1"
     inkscape:groupmode="layer"
     inkscape:label="Layer 1">
    <path
       sodipodi:nodetypes="ccccccccscssccccccczcc"
       inkscape:connector-curvature="0"
       id="path5806"
       d="M 64.698779,64.081746 56.933577,83.6893 c -19.271054,8.706307 -22.524838,31.14691 0.518804,42.55475 0,0 2.071843,4.18078 -9.016075,10.27576 -8.586727,19.21939 -7.757402,45.27984 -6.291961,75.33584 l 10.772321,-61.04315 -2.645833,112.44791 24.379466,0.37798 c 0,0 17.571389,-8.19469 -4.346728,-9.07142 C 56.129462,254 53.593276,247.93387 64.633927,204.86309 c 9.374746,4.82382 -16.551756,43.07176 -1.186091,48.36218 0,0 13.466892,-46.01221 18.502692,-52.07293 24.080002,-28.98094 -9.662581,-52.13523 -9.662581,-52.13523 l 21.26116,16.34747 22.678573,-6.80357 15.11904,-1.70089 -18.14286,-1.32292 -19.749249,3.02381 -21.733629,-28.44942 c 0,0 -8.993327,-7.79083 -0.0945,-3.30058 8.898827,4.49025 26.404612,-10.39435 -0.809678,-40.254464 -7.559517,-3.590773 -6.118025,-22.4748 -6.118025,-22.4748 z"
       style="fill:#000000;fill-opacity:1;stroke:#000000;stroke-width:0.264583px;stroke-linecap:butt;stroke-linejoin:miter;stroke-opacity:1" />
  </g>
</svg>
